<?xml version="1.0"?>
<svg width="1280" height="1024" xmlns="http://www.w3.org/2000/svg" xmlns:svg="http://www.w3.org/2000/svg" version="1.1" xml:space="preserve">
 <desc>Created with Fabric.js 4.4.0</desc>

 <g class="layer">
  <title>Layer 1</title>
  <g id="background-logo" transform="matrix(1 0 0 1 640 512)">
   <rect fill="rgb(255,255,255)" fill-opacity="0" fill-rule="nonzero" height="1024" id="svg_1" stroke-dashoffset="0" stroke-miterlimit="4" stroke-width="0" width="1280" x="-640" y="-512"/>
  </g>
  <g id="logo-logo" transform="matrix(1.2227239507086658 0 0 1.2227239507086658 186.7772417766804 512.1632886564238)">
   <g id="svg_2">
    <g id="svg_3" transform="matrix(1.8501874326865708 0 0 1.8501874326865708 -13.738915310638788 -16.56038215105886)">
     <path d="m138.22,102.36c-0.45,-2.33 1.56,-4.34 3.89,-3.9c1.3,0.25 2.36,1.31 2.61,2.6c0.44,2.34 -1.57,4.35 -3.9,3.9c-1.3,-0.24 -2.36,-1.3 -2.6,-2.6zm20.56,20.56c2.33,0.45 4.34,-1.56 3.9,-3.9c-0.25,-1.29 -1.31,-2.35 -2.61,-2.6c-2.33,-0.44 -4.34,1.57 -3.89,3.9c0.24,1.3 1.3,2.36 2.6,2.6zm-30.18,7.76c2.33,0.44 4.34,-1.57 3.89,-3.9c-0.24,-1.3 -1.3,-2.36 -2.6,-2.6c-2.33,-0.45 -4.34,1.56 -3.9,3.9c0.25,1.29 1.31,2.35 2.61,2.6zm-20.23,15.37c-0.44,2.33 1.56,4.34 3.9,3.9c1.29,-0.25 2.35,-1.31 2.6,-2.6c0.44,-2.34 -1.57,-4.35 -3.9,-3.9c-1.3,0.24 -2.36,1.3 -2.6,2.6zm19.1,9.26c-2.33,-0.44 -4.34,1.57 -3.89,3.9c0.24,1.29 1.3,2.35 2.6,2.6c2.33,0.44 4.34,-1.56 3.9,-3.9c-0.25,-1.29 -1.31,-2.35 -2.61,-2.6zm8.51,21.83c-2.34,-0.45 -4.34,1.56 -3.9,3.89c0.25,1.3 1.31,2.36 2.6,2.61c2.33,0.44 4.34,-1.57 3.9,-3.9c-0.25,-1.3 -1.31,-2.36 -2.6,-2.6zm36.55,-15.44c-0.44,2.34 1.57,4.35 3.9,3.9c1.3,-0.24 2.36,-1.3 2.6,-2.6c0.44,-2.33 -1.56,-4.34 -3.9,-3.9c-1.29,0.25 -2.35,1.31 -2.6,2.6zm21.51,6.47c-2.34,-0.45 -4.34,1.56 -3.9,3.9c0.24,1.29 1.3,2.35 2.6,2.6c2.33,0.44 4.34,-1.57 3.9,-3.9c-0.25,-1.3 -1.31,-2.36 -2.6,-2.6zm-8.99,-30.78c0,1.83 1.48,3.32 3.31,3.32c1.83,0 3.31,-1.49 3.31,-3.32c0,-1.82 -1.48,-3.31 -3.31,-3.31c-1.83,0 -3.31,1.49 -3.31,3.31zm-20.89,0.07c-2.33,-0.45 -4.34,1.56 -3.9,3.89c0.25,1.3 1.31,2.36 2.61,2.61c2.33,0.44 4.34,-1.57 3.89,-3.9c-0.24,-1.3 -1.3,-2.36 -2.6,-2.6zm-69.15,4.32c0.44,-2.33 -1.56,-4.34 -3.9,-3.9c-1.29,0.25 -2.35,1.31 -2.6,2.6c-0.44,2.34 1.57,4.34 3.9,3.9c1.29,-0.24 2.35,-1.31 2.6,-2.6z" fill="rgb(0,255,215)" fill-rule="nonzero" id="svg_4" stroke-dashoffset="0" stroke-miterlimit="4" transform=" translate(-142.57431179141068, -141.0493485675234)"/>
    </g>
    <g id="svg_5" transform="matrix(1.8501874326865708 0 0 1.8501874326865708 3.0636919804532 0.0000011677907707508)">
     <linearGradient id="SVGID_6_232587" x1="0.19" x2="0.82" y1="0.82" y2="0.1">
      <stop offset="0%" stop-color="rgb(111,255,147)"/>
      <stop offset="100%" stop-color="rgb(20,254,235)"/>
     </linearGradient>
     <path d="m95.58,123.37c0.55,-2.89 2.87,-5.24 5.76,-5.81c1.72,-0.35 3.36,-0.1 4.76,0.58c1.31,0.64 2.87,0.47 4.01,-0.45l4.03,-3.25c0.96,-0.78 1.38,-2.01 1.26,-3.25c-0.06,-0.61 0,-1.25 0.22,-1.91c0.58,-1.83 2.21,-3.21 4.11,-3.42c3.23,-0.36 5.93,2.41 5.43,5.66c-0.3,2 -1.9,3.65 -3.88,4.05c-0.88,0.17 -1.73,0.1 -2.49,-0.15c-1.2,-0.4 -2.51,-0.14 -3.49,0.65l-3.94,3.18c-1.14,0.92 -1.62,2.42 -1.27,3.84c0.26,1.08 0.28,2.25 0.01,3.46c-0.65,2.82 -2.97,5.05 -5.82,5.57c-5.21,0.96 -9.69,-3.53 -8.7,-8.75zm50.45,6.26l0.13,-2.45c0.07,-1.28 0.8,-2.41 1.91,-3.06c1.65,-0.98 2.67,-2.89 2.34,-5.01c-0.31,-1.96 -1.84,-3.6 -3.79,-4.01c-3.18,-0.67 -5.99,1.74 -5.99,4.81c0,1.62 0.79,3.05 2.01,3.94c1.02,0.75 1.59,1.96 1.52,3.23l-0.13,2.45c-0.08,1.47 -1.02,2.73 -2.38,3.29c-2.7,1.11 -4.59,3.76 -4.59,6.86c0,0.02 0,0.04 0,0.06l-4.82,0.7c-1.28,0.18 -2.53,-0.33 -3.4,-1.28c-1.09,-1.22 -2.79,-1.88 -4.63,-1.52c-1.88,0.38 -3.4,1.88 -3.8,3.75c-0.67,3.18 1.74,5.99 4.81,5.99c1.97,0 3.66,-1.17 4.44,-2.85c0.53,-1.14 1.61,-1.93 2.86,-2.11l2.1,-0.31c1.44,-0.21 2.87,0.45 3.68,1.67c0.56,0.85 1.3,1.58 2.15,2.13c1.23,0.79 1.91,2.21 1.71,3.66l-1.05,7.99c-0.17,1.25 -0.95,2.34 -2.09,2.89c-1.67,0.79 -2.82,2.49 -2.79,4.47c0.03,2.64 2.29,4.86 4.92,4.86c2.72,0 4.92,-2.2 4.92,-4.92c0,-1.46 -0.64,-2.75 -1.65,-3.65c-0.96,-0.86 -1.5,-2.11 -1.33,-3.39l1.06,-7.98c0.19,-1.44 1.18,-2.64 2.56,-3.08c3.01,-0.94 5.2,-3.76 5.2,-7.08c0,-2.83 -1.58,-5.28 -3.9,-6.53c-1.29,-0.7 -2.06,-2.06 -1.98,-3.52zm59.49,16.76c-3.14,-0.57 -6,0.83 -7.56,3.18c-0.83,1.23 -2.24,1.93 -3.71,1.73l-0.72,-0.1c-1.25,-0.18 -2.33,-0.96 -2.87,-2.1c-0.79,-1.69 -2.49,-2.86 -4.49,-2.83c-2.63,0.02 -4.86,2.28 -4.86,4.92c0,2.71 2.2,4.91 4.92,4.91c1.44,0 2.72,-0.62 3.62,-1.61c0.87,-0.96 2.12,-1.49 3.41,-1.31l3.44,0.48c0,0.01 0,0.02 0,0.03c0,4.1 3.32,7.43 7.43,7.43c4.59,0 8.2,-4.17 7.28,-8.92c-0.57,-2.93 -2.95,-5.27 -5.89,-5.81zm-27.21,25.18c-0.92,-0.19 -1.83,-0.2 -2.68,-0.06c-1.47,0.24 -2.95,-0.31 -3.8,-1.53l-5.05,-7.19c-0.74,-1.07 -0.82,-2.43 -0.36,-3.65c0.29,-0.77 0.39,-1.64 0.24,-2.55c-0.35,-2.05 -2.03,-3.71 -4.08,-4.02c-3.33,-0.5 -6.14,2.32 -5.63,5.65c0.3,1.92 1.77,3.54 3.67,3.99c0.46,0.11 0.92,0.16 1.35,0.14c1.26,-0.04 2.46,0.56 3.18,1.59l5.05,7.2c0.84,1.2 0.88,2.77 0.16,4.05c-0.09,0.15 -0.17,0.31 -0.24,0.47c-0.63,1.31 -1.95,2.16 -3.41,2.15l-2.56,-0.01c-1.3,0 -2.46,-0.7 -3.18,-1.77c-1.03,-1.53 -2.9,-2.45 -4.95,-2.1c-1.94,0.34 -3.54,1.86 -3.94,3.79c-0.66,3.18 1.75,5.98 4.81,5.98c1.74,0 3.27,-0.91 4.14,-2.27c0.67,-1.05 1.87,-1.63 3.11,-1.63l2.57,0.01c1.46,0.01 2.77,0.86 3.39,2.18c0.61,1.3 1.59,2.4 2.8,3.15c1.24,0.78 1.95,2.18 1.78,3.63l-0.07,0.62c-0.14,1.26 -0.91,2.35 -2.04,2.92c-1.63,0.82 -2.73,2.51 -2.7,4.46c0.05,2.62 2.3,4.83 4.92,4.83c2.72,0 4.92,-2.2 4.92,-4.92c0,-1.49 -0.67,-2.82 -1.73,-3.72c-0.98,-0.83 -1.52,-2.07 -1.38,-3.35l0.07,-0.61c0.16,-1.41 1.09,-2.66 2.45,-3.1c3.4,-1.11 5.73,-4.61 4.99,-8.52c-0.56,-2.9 -2.89,-5.24 -5.8,-5.81zm-59.22,-4.99c-0.9,-0.16 -1.76,-0.07 -2.53,0.2c-1.2,0.44 -2.53,0.33 -3.55,-0.42l-5.08,-3.74c-1.19,-0.87 -1.72,-2.35 -1.45,-3.81c0.17,-0.87 0.18,-1.79 0.01,-2.75c-0.53,-2.96 -2.9,-5.36 -5.85,-5.91c-5.23,-0.99 -9.73,3.51 -8.74,8.73c0.55,2.94 2.93,5.3 5.87,5.85c1.82,0.34 3.54,0.01 4.98,-0.78c1.27,-0.7 2.83,-0.57 3.99,0.28l5.02,3.7c1.01,0.74 1.61,1.93 1.53,3.18c-0.04,0.64 0.04,1.31 0.29,2.01c0.56,1.53 1.87,2.72 3.45,3.08c3.49,0.81 6.55,-2.11 6.02,-5.56c-0.31,-2.03 -1.94,-3.7 -3.96,-4.06zm42.57,-58.44c1.22,0.24 2.38,0.02 3.33,-0.52c1.11,-0.62 2.46,-0.65 3.59,-0.06l8.22,4.3c1.3,0.68 2.07,2.04 2.01,3.5c-0.01,0.1 -0.01,0.2 -0.01,0.3c0,1 0.2,1.95 0.55,2.81c0.56,1.36 0.31,2.91 -0.68,3.99l-2.05,2.25c-0.89,0.97 -2.2,1.34 -3.5,1.16c-0.61,-0.09 -1.27,-0.06 -1.95,0.13c-1.88,0.51 -3.33,2.16 -3.58,4.09c-0.42,3.27 2.38,6.02 5.67,5.51c1.96,-0.31 3.58,-1.84 4.01,-3.77c0.17,-0.8 0.15,-1.57 -0.03,-2.27c-0.31,-1.24 -0.01,-2.56 0.85,-3.5l2.06,-2.25c0.99,-1.08 2.51,-1.47 3.91,-1.04c0.69,0.21 1.42,0.32 2.17,0.32c1.02,0 1.99,-0.21 2.88,-0.58c1.35,-0.57 2.9,-0.33 3.98,0.65l3.91,3.5c0.97,0.87 1.35,2.17 1.18,3.46c-0.11,0.75 -0.03,1.57 0.3,2.42c0.57,1.48 1.86,2.62 3.4,2.98c3.49,0.81 6.56,-2.1 6.03,-5.56c-0.3,-1.97 -1.84,-3.6 -3.79,-4.02c-0.81,-0.18 -1.58,-0.15 -2.3,0.04c-1.23,0.33 -2.54,0.03 -3.5,-0.82l-3.89,-3.49c-1.08,-0.97 -1.51,-2.47 -1.09,-3.85c0.29,-0.96 0.39,-2 0.26,-3.07c-0.41,-3.39 -3.2,-6.12 -6.58,-6.47c-2,-0.21 -3.84,0.38 -5.28,1.47c-1.16,0.89 -2.72,1.02 -4.01,0.34l-8.18,-4.28c-1.08,-0.56 -1.9,-1.6 -2.01,-2.82c-0.09,-0.93 -0.54,-1.97 -1.74,-3.17c-0.76,-0.78 -1.76,-1.34 -2.85,-1.41c-3.2,-0.2 -5.8,2.67 -5.13,5.95c0.39,1.9 1.94,3.41 3.84,3.78z" fill="url(#SVGID_6_232587)" fill-rule="nonzero" id="svg_6" stroke-dashoffset="0" stroke-miterlimit="4" transform=" translate(-151.65588212004153, -150.00000028328125)"/>
    </g>
   </g>
  </g>
  <g id="text-logo" transform="matrix(1.9211538461538462 0 0 1.9211538461538462 792.7085134113264 507.6833808709203)">
   <g id="svg_7">
    <g id="text-logo-path-0" transform="matrix(1 0 0 1 0 0)">
     <path d="m24.57,-53.09l-21.23,53.09l6.37,0l5.23,-13.12l27.46,0l5.23,13.12l6.37,0l-21.24,-53.09l-8.19,0zm-7.35,34.28l11.45,-28.59l11.45,28.59l-22.9,0zm58.62,-34.28l0,53.09l6.07,0l0,-53.09l-6.07,0zm27.91,0l0,53.09l37.16,0l0,-5.69l-31.09,0l0,-47.4l-6.07,0zm59.01,0l0,53.09l6.06,0l0,-53.09l-6.06,0zm27.91,0l0,53.09l6.06,0l0,-18.35l9.03,-9.26c15.85,0.69 21.23,12.52 21.23,27.61l6.07,0c0,-15.24 -5.99,-29.81 -21.92,-32.99l19.72,-20.1l-7.58,0l-26.55,27l0,-27l-6.06,0zm64.23,0l0,53.09l37.16,0l0,-5.69l-31.09,0l0,-18.05l23.51,0l0,-5.69l-23.51,0l0,-17.97l31.09,0l0,-5.69l-37.16,0zm62.8,53.85c2.12,0 3.79,-1.67 3.79,-3.79c0,-2.13 -1.67,-3.8 -3.79,-3.8c-2.12,0 -3.79,1.67 -3.79,3.8c0,2.12 1.67,3.79 3.79,3.79zm25.63,-53.85l0,53.09l6.07,0l0,-43.91l18.2,43.91l6.07,0l18.2,-43.91l0,43.91l6.07,0l0,-53.09l-8.34,0l-18.96,45.73l-18.96,-45.73l-8.35,0zm76.45,0l0,53.09l37.16,0l0,-5.69l-31.09,0l0,-18.05l23.51,0l0,-5.69l-23.51,0l0,-17.97l31.09,0l0,-5.69l-37.16,0z" fill="rgb(255,255,255)" fill-rule="nonzero" id="svg_8" stroke-dashoffset="0" stroke-miterlimit="4" stroke-width="0" transform=" translate(-230.14000000000001, 26.165000000000003)"/>
    </g>
   </g>
  </g>
  <g id="tagline-9854fc5b-54fd-4f44-8ef8-6038cd57799a-logo" transform="matrix(1 0 0 1 0 0) matrix(1.92115 0 0 1.92115 432.453 506.922)">
   <g id="svg_9">
    <g id="tagline-9854fc5b-54fd-4f44-8ef8-6038cd57799a-logo-path-0" transform="matrix(1 0 0 1 0 0)">
     <path d="m24.57,-53.09l-21.23,53.09l6.37,0l5.23,-13.12l27.46,0l5.23,13.12l6.37,0l-21.24,-53.09l-8.19,0zm-7.35,34.28l11.45,-28.59l11.45,28.59l-22.9,0zm58.62,-34.28l0,53.09l6.07,0l0,-53.09l-6.07,0z" fill="#ffffff" fill-rule="nonzero" id="svg_10" stroke-dashoffset="0" stroke-miterlimit="4" stroke-width="0" transform=" translate(-42.625, 26.545)"/>
    </g>
   </g>
  </g>
  <g id="tagline-12d39c0d-72ff-4abb-89c0-68f3cb27b0ae-logo" transform="matrix(1.9211538461538462 0 0 1.9211538461538462 1118.9059039439933 506.9219002847366)">
   <g id="svg_11">
    <g id="tagline-12d39c0d-72ff-4abb-89c0-68f3cb27b0ae-logo-path-0" transform="matrix(1 0 0 1 0 0)">
     <path d="m3.34,-53.09l0,53.09l6.06,0l0,-43.91l18.21,43.91l6.06,0l18.21,-43.91l0,43.91l6.06,0l0,-53.09l-8.34,0l-18.96,45.73l-18.96,-45.73l-8.34,0zm76.45,0l0,53.09l37.16,0l0,-5.69l-31.1,0l0,-18.05l23.51,0l0,-5.69l-23.51,0l0,-17.97l31.1,0l0,-5.69l-37.16,0z" fill="#ffffff" fill-rule="nonzero" id="svg_12" stroke-dashoffset="0" stroke-miterlimit="4" stroke-width="0" transform=" translate(-60.144999999999996, 26.545)"/>
    </g>
   </g>
  </g>
 </g>
</svg>